<?xml version="1.0" encoding="UTF-8" standalone="no"?>
<!DOCTYPE svg PUBLIC "-//W3C//DTD SVG 1.1//EN"
 "http://www.w3.org/Graphics/SVG/1.1/DTD/svg11.dtd">
<!-- Generated by graphviz version 14.1.2 (20260126.1125)
 -->
<!-- Title: mapping_qc_pipeline Pages: 1 -->
<svg width="2668pt" height="152pt"
 viewBox="0.00 0.00 2668.00 152.00" xmlns="http://www.w3.org/2000/svg" xmlns:xlink="http://www.w3.org/1999/xlink">
<g id="graph0" class="graph" transform="scale(1 1) rotate(0) translate(4 148.1)">
<title>mapping_qc_pipeline</title>
<polygon fill="white" stroke="none" points="-4,4 -4,-148.1 2663.98,-148.1 2663.98,4 -4,4"/>
<!-- fastq -->
<g id="node1" class="node">
<title>fastq</title>
<ellipse fill="none" stroke="black" cx="410.35" cy="-114.05" rx="162.99" ry="30.05"/>
<text xml:space="preserve" text-anchor="middle" x="410.35" y="-118" font-family="Times,serif" font-size="14.00">FASTQ paired&#45;end</text>
<text xml:space="preserve" text-anchor="middle" x="410.35" y="-100.75" font-family="Times,serif" font-size="14.00">SRR826444_1 / SRR826444_2</text>
</g>
<!-- fastqc -->
<g id="node3" class="node">
<title>fastqc</title>
<ellipse fill="none" stroke="black" cx="669.97" cy="-126.05" rx="48.05" ry="18"/>
<text xml:space="preserve" text-anchor="middle" x="669.97" y="-121.38" font-family="Times,serif" font-size="14.00">FastQC</text>
</g>
<!-- fastq&#45;&gt;fastqc -->
<g id="edge1" class="edge">
<title>fastq&#45;&gt;fastqc</title>
<path fill="none" stroke="black" d="M569,-121.4C583.63,-122.08 597.74,-122.73 610.52,-123.33"/>
<polygon fill="black" stroke="black" points="610.2,-126.82 620.35,-123.79 610.52,-119.83 610.2,-126.82"/>
</g>
<!-- align -->
<g id="node5" class="node">
<title>align</title>
<ellipse fill="none" stroke="black" cx="669.97" cy="-72.05" rx="59.63" ry="18"/>
<text xml:space="preserve" text-anchor="middle" x="669.97" y="-67.38" font-family="Times,serif" font-size="14.00">bwa mem</text>
</g>
<!-- fastq&#45;&gt;align -->
<g id="edge3" class="edge">
<title>fastq&#45;&gt;align</title>
<path fill="none" stroke="black" d="M533.75,-94.1C558.62,-90.04 583.81,-85.93 605.6,-82.38"/>
<polygon fill="black" stroke="black" points="605.87,-85.89 615.18,-80.82 604.74,-78.98 605.87,-85.89"/>
</g>
<!-- ref -->
<g id="node2" class="node">
<title>ref</title>
<ellipse fill="none" stroke="black" cx="105.18" cy="-30.05" rx="105.18" ry="30.05"/>
<text xml:space="preserve" text-anchor="middle" x="105.18" y="-34" font-family="Times,serif" font-size="14.00">Reference genome</text>
<text xml:space="preserve" text-anchor="middle" x="105.18" y="-16.75" font-family="Times,serif" font-size="14.00">ecoli.fa</text>
</g>
<!-- index -->
<g id="node4" class="node">
<title>index</title>
<ellipse fill="none" stroke="black" cx="410.35" cy="-30.05" rx="84.5" ry="30.05"/>
<text xml:space="preserve" text-anchor="middle" x="410.35" y="-34" font-family="Times,serif" font-size="14.00">bwa index</text>
<text xml:space="preserve" text-anchor="middle" x="410.35" y="-16.75" font-family="Times,serif" font-size="14.00">samtools faidx</text>
</g>
<!-- ref&#45;&gt;index -->
<g id="edge2" class="edge">
<title>ref&#45;&gt;index</title>
<path fill="none" stroke="black" d="M210.52,-30.05C244.07,-30.05 281.06,-30.05 313.94,-30.05"/>
<polygon fill="black" stroke="black" points="313.87,-33.55 323.87,-30.05 313.87,-26.55 313.87,-33.55"/>
</g>
<!-- index&#45;&gt;align -->
<g id="edge4" class="edge">
<title>index&#45;&gt;align</title>
<path fill="none" stroke="black" d="M487.6,-42.48C525.22,-48.62 570.06,-55.93 605.74,-61.74"/>
<polygon fill="black" stroke="black" points="605.06,-65.18 615.49,-63.33 606.18,-58.27 605.06,-65.18"/>
</g>
<!-- freebayes -->
<g id="node13" class="node">
<title>freebayes</title>
<ellipse fill="none" stroke="black" cx="2279.96" cy="-35.05" rx="60.15" ry="18"/>
<text xml:space="preserve" text-anchor="middle" x="2279.96" y="-30.38" font-family="Times,serif" font-size="14.00">freebayes</text>
</g>
<!-- index&#45;&gt;freebayes -->
<g id="edge13" class="edge">
<title>index&#45;&gt;freebayes</title>
<path fill="none" stroke="black" d="M494.58,-26.64C545.03,-24.86 610.69,-23.05 668.97,-23.05 668.97,-23.05 668.97,-23.05 2097.35,-23.05 2135.11,-23.05 2177.18,-25.67 2211.32,-28.45"/>
<polygon fill="black" stroke="black" points="2210.81,-31.92 2221.07,-29.28 2211.4,-24.95 2210.81,-31.92"/>
</g>
<!-- bam -->
<g id="node6" class="node">
<title>bam</title>
<ellipse fill="none" stroke="black" cx="849.5" cy="-81.05" rx="82.91" ry="30.05"/>
<text xml:space="preserve" text-anchor="middle" x="849.5" y="-85" font-family="Times,serif" font-size="14.00">samtools view</text>
<text xml:space="preserve" text-anchor="middle" x="849.5" y="-67.75" font-family="Times,serif" font-size="14.00">SAM to BAM</text>
</g>
<!-- align&#45;&gt;bam -->
<g id="edge5" class="edge">
<title>align&#45;&gt;bam</title>
<path fill="none" stroke="black" d="M729.1,-75C737.63,-75.43 746.59,-75.89 755.61,-76.34"/>
<polygon fill="black" stroke="black" points="755.36,-79.83 765.53,-76.85 755.72,-72.84 755.36,-79.83"/>
</g>
<!-- flagstat -->
<g id="node7" class="node">
<title>flagstat</title>
<ellipse fill="none" stroke="black" cx="1066.39" cy="-81.05" rx="96.98" ry="18"/>
<text xml:space="preserve" text-anchor="middle" x="1066.39" y="-76.38" font-family="Times,serif" font-size="14.00">samtools flagstat</text>
</g>
<!-- bam&#45;&gt;flagstat -->
<g id="edge6" class="edge">
<title>bam&#45;&gt;flagstat</title>
<path fill="none" stroke="black" d="M932.66,-81.05C940.89,-81.05 949.32,-81.05 957.76,-81.05"/>
<polygon fill="black" stroke="black" points="957.74,-84.55 967.74,-81.05 957.74,-77.55 957.74,-84.55"/>
</g>
<!-- parse -->
<g id="node8" class="node">
<title>parse</title>
<ellipse fill="none" stroke="black" cx="1324.18" cy="-81.05" rx="123.81" ry="18"/>
<text xml:space="preserve" text-anchor="middle" x="1324.18" y="-76.38" font-family="Times,serif" font-size="14.00">Parse mapped percent</text>
</g>
<!-- flagstat&#45;&gt;parse -->
<g id="edge7" class="edge">
<title>flagstat&#45;&gt;parse</title>
<path fill="none" stroke="black" d="M1163.73,-81.05C1171.91,-81.05 1180.27,-81.05 1188.67,-81.05"/>
<polygon fill="black" stroke="black" points="1188.62,-84.55 1198.62,-81.05 1188.62,-77.55 1188.62,-84.55"/>
</g>
<!-- decision -->
<g id="node9" class="node">
<title>decision</title>
<ellipse fill="none" stroke="black" cx="1619.85" cy="-81.05" rx="134.86" ry="18"/>
<text xml:space="preserve" text-anchor="middle" x="1619.85" y="-76.38" font-family="Times,serif" font-size="14.00">mapped percent &gt; 90%?</text>
</g>
<!-- parse&#45;&gt;decision -->
<g id="edge8" class="edge">
<title>parse&#45;&gt;decision</title>
<path fill="none" stroke="black" d="M1448.45,-81.05C1456.65,-81.05 1464.95,-81.05 1473.25,-81.05"/>
<polygon fill="black" stroke="black" points="1473.03,-84.55 1483.03,-81.05 1473.03,-77.55 1473.03,-84.55"/>
</g>
<!-- notok -->
<g id="node10" class="node">
<title>notok</title>
<ellipse fill="none" stroke="black" cx="1893.8" cy="-123.05" rx="76.46" ry="18"/>
<text xml:space="preserve" text-anchor="middle" x="1893.8" y="-118.38" font-family="Times,serif" font-size="14.00">Write not OK</text>
</g>
<!-- decision&#45;&gt;notok -->
<g id="edge9" class="edge">
<title>decision&#45;&gt;notok</title>
<path fill="none" stroke="black" d="M1709.9,-94.8C1744.83,-100.2 1784.47,-106.32 1817.9,-111.48"/>
<polygon fill="black" stroke="black" points="1817.07,-114.9 1827.49,-112.96 1818.14,-107.98 1817.07,-114.9"/>
<text xml:space="preserve" text-anchor="middle" x="1784.71" y="-111" font-family="Times,serif" font-size="14.00">No</text>
</g>
<!-- sort -->
<g id="node11" class="node">
<title>sort</title>
<ellipse fill="none" stroke="black" cx="1893.8" cy="-69.05" rx="79.09" ry="18"/>
<text xml:space="preserve" text-anchor="middle" x="1893.8" y="-64.38" font-family="Times,serif" font-size="14.00">samtools sort</text>
</g>
<!-- decision&#45;&gt;sort -->
<g id="edge10" class="edge">
<title>decision&#45;&gt;sort</title>
<path fill="none" stroke="black" d="M1748.46,-75.42C1767.46,-74.58 1786.67,-73.73 1804.62,-72.94"/>
<polygon fill="black" stroke="black" points="1804.56,-76.45 1814.39,-72.51 1804.25,-69.46 1804.56,-76.45"/>
<text xml:space="preserve" text-anchor="middle" x="1784.71" y="-78.28" font-family="Times,serif" font-size="14.00">Yes</text>
</g>
<!-- bamindex -->
<g id="node12" class="node">
<title>bamindex</title>
<ellipse fill="none" stroke="black" cx="2096.35" cy="-69.05" rx="86.46" ry="18"/>
<text xml:space="preserve" text-anchor="middle" x="2096.35" y="-64.38" font-family="Times,serif" font-size="14.00">samtools index</text>
</g>
<!-- sort&#45;&gt;bamindex -->
<g id="edge11" class="edge">
<title>sort&#45;&gt;bamindex</title>
<path fill="none" stroke="black" d="M1973.2,-69.05C1981.43,-69.05 1989.87,-69.05 1998.28,-69.05"/>
<polygon fill="black" stroke="black" points="1998.19,-72.55 2008.19,-69.05 1998.19,-65.55 1998.19,-72.55"/>
</g>
<!-- bamindex&#45;&gt;freebayes -->
<g id="edge12" class="edge">
<title>bamindex&#45;&gt;freebayes</title>
<path fill="none" stroke="black" d="M2161.89,-56.97C2179.79,-53.62 2199.18,-49.99 2216.93,-46.67"/>
<polygon fill="black" stroke="black" points="2217.36,-50.15 2226.55,-44.86 2216.07,-43.26 2217.36,-50.15"/>
</g>
<!-- vcf -->
<g id="node14" class="node">
<title>vcf</title>
<ellipse fill="none" stroke="black" cx="2445.68" cy="-35.05" rx="68.57" ry="18"/>
<text xml:space="preserve" text-anchor="middle" x="2445.68" y="-30.38" font-family="Times,serif" font-size="14.00">VCF output</text>
</g>
<!-- freebayes&#45;&gt;vcf -->
<g id="edge14" class="edge">
<title>freebayes&#45;&gt;vcf</title>
<path fill="none" stroke="black" d="M2340.53,-35.05C2348.64,-35.05 2357.06,-35.05 2365.45,-35.05"/>
<polygon fill="black" stroke="black" points="2365.32,-38.55 2375.32,-35.05 2365.32,-31.55 2365.32,-38.55"/>
</g>
<!-- finished -->
<g id="node15" class="node">
<title>finished</title>
<ellipse fill="none" stroke="black" cx="2605.62" cy="-35.05" rx="54.36" ry="18"/>
<text xml:space="preserve" text-anchor="middle" x="2605.62" y="-30.38" font-family="Times,serif" font-size="14.00">Finished</text>
</g>
<!-- vcf&#45;&gt;finished -->
<g id="edge15" class="edge">
<title>vcf&#45;&gt;finished</title>
<path fill="none" stroke="black" d="M2514.58,-35.05C2522.87,-35.05 2531.34,-35.05 2539.59,-35.05"/>
<polygon fill="black" stroke="black" points="2539.56,-38.55 2549.56,-35.05 2539.56,-31.55 2539.56,-38.55"/>
</g>
</g>
</svg>
